<mxfile host="Electron" modified="2023-12-05T19:44:37.118Z" agent="Mozilla/5.0 (Macintosh; Intel Mac OS X 10_15_7) AppleWebKit/537.36 (KHTML, like Gecko) draw.io/22.0.2 Chrome/114.0.5735.289 Electron/25.8.4 Safari/537.36" etag="Va5qxNBT8qfpyp5Pb6Mi" version="22.0.2" type="device">
  <diagram id="E0dQuIwr_RJNDU1JiYtu" name="Page-2">
    <mxGraphModel dx="4896" dy="2988" grid="1" gridSize="10" guides="1" tooltips="1" connect="1" arrows="1" fold="1" page="1" pageScale="1" pageWidth="850" pageHeight="1100" math="0" shadow="0">
      <root>
        <mxCell id="0" />
        <mxCell id="1" parent="0" />
        <mxCell id="ZEjWtM-XEEBFn4Ayn8LE-1" value="&lt;p style=&quot;margin:0px;margin-top:4px;text-align:center;&quot;&gt;&lt;b&gt;Account&lt;/b&gt;&lt;/p&gt;&lt;hr size=&quot;1&quot;/&gt;&lt;p style=&quot;margin:0 0 0 4px;line-height:1.6;&quot;&gt;+ Account(String, String, String): &lt;br/&gt;+ Account(String, String): &lt;/p&gt;&lt;hr size=&quot;1&quot;/&gt;&lt;p style=&quot;margin:0 0 0 4px;line-height:1.6;&quot;&gt;- email: String&lt;br/&gt;- accountType: String&lt;br/&gt;- password: String&lt;/p&gt;&lt;hr size=&quot;1&quot;/&gt;&lt;p style=&quot;margin:0 0 0 4px;line-height:1.6;&quot;&gt;+ getEmail(): String&lt;br/&gt;+ getAccountType(): String&lt;/p&gt;" style="verticalAlign=top;align=left;overflow=fill;fontSize=14;fontFamily=Helvetica;html=1;rounded=0;shadow=0;comic=0;labelBackgroundColor=none;strokeWidth=1;" vertex="1" parent="1">
          <mxGeometry x="995" y="160" width="237" height="229" as="geometry" />
        </mxCell>
        <mxCell id="ZEjWtM-XEEBFn4Ayn8LE-2" value="&lt;p style=&quot;margin:0px;margin-top:4px;text-align:center;&quot;&gt;&lt;b&gt;AccountInterface&lt;/b&gt;&lt;/p&gt;&lt;hr size=&quot;1&quot;/&gt;&lt;p style=&quot;margin:0 0 0 4px;line-height:1.6;&quot;&gt;+ AccountInterface(): &lt;/p&gt;&lt;hr size=&quot;1&quot;/&gt;&lt;p style=&quot;margin:0 0 0 4px;line-height:1.6;&quot;&gt;- accountType: TextField&lt;br/&gt;- name: TextField&lt;br/&gt;- email: TextField&lt;br/&gt;- back: Text&lt;/p&gt;&lt;hr size=&quot;1&quot;/&gt;&lt;p style=&quot;margin:0 0 0 4px;line-height:1.6;&quot;&gt;+ initialize(URL, ResourceBundle): void&lt;br/&gt;~ goBack(MouseEvent): void&lt;/p&gt;" style="verticalAlign=top;align=left;overflow=fill;fontSize=14;fontFamily=Helvetica;html=1;rounded=0;shadow=0;comic=0;labelBackgroundColor=none;strokeWidth=1;" vertex="1" parent="1">
          <mxGeometry x="1293" y="1669" width="277" height="229" as="geometry" />
        </mxCell>
        <mxCell id="ZEjWtM-XEEBFn4Ayn8LE-3" value="&lt;p style=&quot;margin:0px;margin-top:4px;text-align:center;&quot;&gt;&lt;b&gt;AdminDashboardController&lt;/b&gt;&lt;/p&gt;&lt;hr size=&quot;1&quot;/&gt;&lt;p style=&quot;margin:0 0 0 4px;line-height:1.6;&quot;&gt;+ AdminDashboardController(): &lt;/p&gt;&lt;hr size=&quot;1&quot;/&gt;&lt;p style=&quot;margin:0 0 0 4px;line-height:1.6;&quot;&gt;~ bookings: ObservableList&amp;lt;Booking&amp;gt;&lt;br/&gt;- back: Text&lt;br/&gt;- userColumn: TableColumn&amp;lt;Booking, Integer&amp;gt;&lt;br/&gt;- studentEmail: TextField&lt;br/&gt;- isbnError: Label&lt;br/&gt;- yearColumn: TableColumn&amp;lt;Booking, Integer&amp;gt;&lt;br/&gt;- monthColumn: TableColumn&amp;lt;Booking, Integer&amp;gt;&lt;br/&gt;- searchBook: Button&lt;br/&gt;- tableBooking: TableView&amp;lt;Booking&amp;gt;&lt;br/&gt;- dayColumn: TableColumn&amp;lt;Booking, Integer&amp;gt;&lt;br/&gt;- isbnColumn: TableColumn&amp;lt;Booking, String&amp;gt;&lt;br/&gt;- booking: Booking&lt;br/&gt;- confirm: Button&lt;br/&gt;- studentEmailError: Label&lt;br/&gt;- isbnBook: TextField&lt;/p&gt;&lt;hr size=&quot;1&quot;/&gt;&lt;p style=&quot;margin:0 0 0 4px;line-height:1.6;&quot;&gt;+ confirmBooking(ActionEvent): void&lt;br/&gt;~ goBack(MouseEvent): void&lt;br/&gt;# searchBook(): void&lt;br/&gt;- validateInput(): boolean&lt;/p&gt;" style="verticalAlign=top;align=left;overflow=fill;fontSize=14;fontFamily=Helvetica;html=1;rounded=0;shadow=0;comic=0;labelBackgroundColor=none;strokeWidth=1;" vertex="1" parent="1">
          <mxGeometry x="1327" y="607" width="339" height="593" as="geometry" />
        </mxCell>
        <mxCell id="ZEjWtM-XEEBFn4Ayn8LE-4" value="&lt;p style=&quot;margin:0px;margin-top:4px;text-align:center;&quot;&gt;&lt;b&gt;AdminInterfaceController&lt;/b&gt;&lt;/p&gt;&lt;hr size=&quot;1&quot;/&gt;&lt;p style=&quot;margin:0 0 0 4px;line-height:1.6;&quot;&gt;+ AdminInterfaceController(): &lt;/p&gt;&lt;hr size=&quot;1&quot;/&gt;&lt;p style=&quot;margin:0 0 0 4px;line-height:1.6;&quot;&gt;- scrollPane: ScrollPane&lt;br/&gt;- back: Text&lt;br/&gt;- addBook: Button&lt;br/&gt;- listaAutores: List&amp;lt;String&amp;gt;&lt;br/&gt;- container: VBox&lt;br/&gt;- listaLibros: List&amp;lt;Book&amp;gt;&lt;/p&gt;&lt;hr size=&quot;1&quot;/&gt;&lt;p style=&quot;margin:0 0 0 4px;line-height:1.6;&quot;&gt;+ askBook(MouseEvent): void&lt;br/&gt;+ initialize(URL, ResourceBundle): void&lt;br/&gt;+ deleteBook(Book): void&lt;br/&gt;~ goBack(MouseEvent): void&lt;br/&gt;- handleDeleteBook(Book): void&lt;br/&gt;- showErrorAlert(String, String): void&lt;br/&gt;- isBookBorrowed(Book): boolean&lt;br/&gt;- createDataAnchorPane(Book, String): AnchorPane&lt;/p&gt;" style="verticalAlign=top;align=left;overflow=fill;fontSize=14;fontFamily=Helvetica;html=1;rounded=0;shadow=0;comic=0;labelBackgroundColor=none;strokeWidth=1;" vertex="1" parent="1">
          <mxGeometry x="1590" y="1669" width="351" height="453" as="geometry" />
        </mxCell>
        <mxCell id="ZEjWtM-XEEBFn4Ayn8LE-5" value="&lt;p style=&quot;margin:0px;margin-top:4px;text-align:center;&quot;&gt;&lt;b&gt;AdminProfileController&lt;/b&gt;&lt;/p&gt;&lt;hr size=&quot;1&quot;/&gt;&lt;p style=&quot;margin:0 0 0 4px;line-height:1.6;&quot;&gt;+ AdminProfileController(): &lt;/p&gt;&lt;hr size=&quot;1&quot;/&gt;&lt;p style=&quot;margin:0 0 0 4px;line-height:1.6;&quot;&gt;- back: Text&lt;br/&gt;- name: TextField&lt;br/&gt;- accountType: TextField&lt;br/&gt;- email: TextField&lt;/p&gt;&lt;hr size=&quot;1&quot;/&gt;&lt;p style=&quot;margin:0 0 0 4px;line-height:1.6;&quot;&gt;+ initialize(URL, ResourceBundle): void&lt;br/&gt;+ goBack(MouseEvent): void&lt;/p&gt;" style="verticalAlign=top;align=left;overflow=fill;fontSize=14;fontFamily=Helvetica;html=1;rounded=0;shadow=0;comic=0;labelBackgroundColor=none;strokeWidth=1;" vertex="1" parent="1">
          <mxGeometry x="577" y="1669" width="277" height="229" as="geometry" />
        </mxCell>
        <mxCell id="ZEjWtM-XEEBFn4Ayn8LE-6" value="&lt;p style=&quot;margin:0px;margin-top:4px;text-align:center;&quot;&gt;&lt;b&gt;Application&lt;/b&gt;&lt;/p&gt;&lt;hr size=&quot;1&quot;/&gt;&lt;p style=&quot;margin:0 0 0 4px;line-height:1.6;&quot;&gt;+ Application(): &lt;/p&gt;&lt;hr size=&quot;1&quot;/&gt;&lt;p style=&quot;margin:0 0 0 4px;line-height:1.6;&quot;&gt;+ STYLESHEET_CASPIAN: String&lt;br/&gt;+ STYLESHEET_MODENA: String&lt;br/&gt;- userAgentStylesheet: String&lt;br/&gt;- hostServices: HostServices&lt;/p&gt;&lt;hr size=&quot;1&quot;/&gt;&lt;p style=&quot;margin:0 0 0 4px;line-height:1.6;&quot;&gt;+ notifyPreloader(PreloaderNotification): void&lt;br/&gt;+ launch(Class&amp;lt;Application&amp;gt;, String[]?): void&lt;br/&gt;+ stop(): void&lt;br/&gt;+ start(Stage): void&lt;br/&gt;+ getHostServices(): HostServices&lt;br/&gt;+ setUserAgentStylesheet(String?): void&lt;br/&gt;+ launch(String[]?): void&lt;br/&gt;+ getParameters(): Parameters&lt;br/&gt;+ getUserAgentStylesheet(): String&lt;br/&gt;+ init(): void&lt;/p&gt;" style="verticalAlign=top;align=left;overflow=fill;fontSize=14;fontFamily=Helvetica;html=1;rounded=0;shadow=0;comic=0;labelBackgroundColor=none;strokeWidth=1;" vertex="1" parent="1">
          <mxGeometry x="608" y="439" width="317" height="453" as="geometry" />
        </mxCell>
        <mxCell id="ZEjWtM-XEEBFn4Ayn8LE-7" value="&lt;p style=&quot;margin:0px;margin-top:4px;text-align:center;&quot;&gt;&lt;b&gt;Author&lt;/b&gt;&lt;/p&gt;&lt;hr size=&quot;1&quot;/&gt;&lt;p style=&quot;margin:0 0 0 4px;line-height:1.6;&quot;&gt;+ Author(int, String, String): &lt;/p&gt;&lt;hr size=&quot;1&quot;/&gt;&lt;p style=&quot;margin:0 0 0 4px;line-height:1.6;&quot;&gt;- ISBN: int&lt;br/&gt;- name: String&lt;br/&gt;- lastName: String&lt;/p&gt;&lt;hr size=&quot;1&quot;/&gt;&lt;p style=&quot;margin:0 0 0 4px;line-height:1.6;&quot;&gt;+ getISBN(): int&lt;br/&gt;+ getName(): String&lt;br/&gt;+ getLastName(): String&lt;/p&gt;" style="verticalAlign=top;align=left;overflow=fill;fontSize=14;fontFamily=Helvetica;html=1;rounded=0;shadow=0;comic=0;labelBackgroundColor=none;strokeWidth=1;" vertex="1" parent="1">
          <mxGeometry x="1249" y="2260" width="211" height="229" as="geometry" />
        </mxCell>
        <mxCell id="ZEjWtM-XEEBFn4Ayn8LE-8" value="&lt;p style=&quot;margin:0px;margin-top:4px;text-align:center;&quot;&gt;&lt;b&gt;Book&lt;/b&gt;&lt;/p&gt;&lt;hr size=&quot;1&quot;/&gt;&lt;p style=&quot;margin:0 0 0 4px;line-height:1.6;&quot;&gt;+ Book(String, String, String, String, String): &lt;/p&gt;&lt;hr size=&quot;1&quot;/&gt;&lt;p style=&quot;margin:0 0 0 4px;line-height:1.6;&quot;&gt;~ title: String&lt;br/&gt;~ isbn: String&lt;br/&gt;~ floor: String&lt;br/&gt;~ year: String&lt;br/&gt;~ shelf: String&lt;/p&gt;&lt;hr size=&quot;1&quot;/&gt;&lt;p style=&quot;margin:0 0 0 4px;line-height:1.6;&quot;&gt;+ getTitle(): String&lt;br/&gt;+ setIsbn(String): void&lt;br/&gt;+ setShelf(String): void&lt;br/&gt;+ setFloor(String): void&lt;br/&gt;+ setYear(String): void&lt;br/&gt;+ setTitle(String): void&lt;br/&gt;+ getShelf(): String&lt;br/&gt;+ getIsbn(): String&lt;br/&gt;+ getFloor(): String&lt;br/&gt;+ getISBN(): String&lt;br/&gt;+ getYear(): String&lt;/p&gt;" style="verticalAlign=top;align=left;overflow=fill;fontSize=14;fontFamily=Helvetica;html=1;rounded=0;shadow=0;comic=0;labelBackgroundColor=none;strokeWidth=1;" vertex="1" parent="1">
          <mxGeometry x="1939" y="996" width="304" height="509" as="geometry" />
        </mxCell>
        <mxCell id="ZEjWtM-XEEBFn4Ayn8LE-9" value="&lt;p style=&quot;margin:0px;margin-top:4px;text-align:center;&quot;&gt;&lt;b&gt;Booking&lt;/b&gt;&lt;/p&gt;&lt;hr size=&quot;1&quot;/&gt;&lt;p style=&quot;margin:0 0 0 4px;line-height:1.6;&quot;&gt;+ Booking(String, int, String, int, int, int): &lt;/p&gt;&lt;hr size=&quot;1&quot;/&gt;&lt;p style=&quot;margin:0 0 0 4px;line-height:1.6;&quot;&gt;- claveUsuario: int&lt;br/&gt;- añoPrestamo: Integer&lt;br/&gt;- nss: String&lt;br/&gt;- mesPrestamo: Integer&lt;br/&gt;- isbn: String&lt;br/&gt;- diaPrestamo: Integer&lt;/p&gt;&lt;hr size=&quot;1&quot;/&gt;&lt;p style=&quot;margin:0 0 0 4px;line-height:1.6;&quot;&gt;+ setIsbn(String): void&lt;br/&gt;+ getAñoPrestamo(): Integer&lt;br/&gt;+ getClaveUsuario(): int&lt;br/&gt;+ getMesPrestamo(): Integer&lt;br/&gt;+ getDiaPrestamo(): Integer&lt;br/&gt;+ getIsbn(): String&lt;/p&gt;" style="verticalAlign=top;align=left;overflow=fill;fontSize=14;fontFamily=Helvetica;html=1;rounded=0;shadow=0;comic=0;labelBackgroundColor=none;strokeWidth=1;" vertex="1" parent="1">
          <mxGeometry x="1345" y="160" width="302" height="397" as="geometry" />
        </mxCell>
        <mxCell id="ZEjWtM-XEEBFn4Ayn8LE-10" value="&lt;p style=&quot;margin:0px;margin-top:4px;text-align:center;&quot;&gt;&lt;b&gt;Category&lt;/b&gt;&lt;/p&gt;&lt;hr size=&quot;1&quot;/&gt;&lt;p style=&quot;margin:0 0 0 4px;line-height:1.6;&quot;&gt;+ Category(int, String): &lt;/p&gt;&lt;hr size=&quot;1&quot;/&gt;&lt;p style=&quot;margin:0 0 0 4px;line-height:1.6;&quot;&gt;- id: int&lt;br/&gt;- name: String&lt;/p&gt;" style="verticalAlign=top;align=left;overflow=fill;fontSize=14;fontFamily=Helvetica;html=1;rounded=0;shadow=0;comic=0;labelBackgroundColor=none;strokeWidth=1;" vertex="1" parent="1">
          <mxGeometry x="577" y="1362" width="183" height="125" as="geometry" />
        </mxCell>
        <mxCell id="ZEjWtM-XEEBFn4Ayn8LE-11" value="&lt;p style=&quot;margin:0px;margin-top:4px;text-align:center;&quot;&gt;&lt;b&gt;DatabaseController&lt;/b&gt;&lt;/p&gt;&lt;hr size=&quot;1&quot;/&gt;&lt;p style=&quot;margin:0 0 0 4px;line-height:1.6;&quot;&gt;+ DatabaseController(): &lt;/p&gt;&lt;hr size=&quot;1&quot;/&gt;&lt;p style=&quot;margin:0 0 0 4px;line-height:1.6;&quot;&gt;- connection: Connection&lt;br/&gt;- LOGGER: Logger&lt;br/&gt;- URL: String&lt;br/&gt;- driver: String&lt;/p&gt;&lt;hr size=&quot;1&quot;/&gt;&lt;p style=&quot;margin:0 0 0 4px;line-height:1.6;&quot;&gt;+ isTitleExists(String): boolean&lt;br/&gt;+ executeQuery(String): ResultSet&lt;br/&gt;+ executeInsert(PreparedStatement): void&lt;br/&gt;+ getAutores(): void&lt;br/&gt;+ isISBNExists(String): boolean&lt;br/&gt;+ getAccountData(): void&lt;br/&gt;+ getConnection(): Connection&lt;br/&gt;+ executeQuery(PreparedStatement): ResultSet&lt;/p&gt;" style="verticalAlign=top;align=left;overflow=fill;fontSize=14;fontFamily=Helvetica;html=1;rounded=0;shadow=0;comic=0;labelBackgroundColor=none;strokeWidth=1;" vertex="1" parent="1">
          <mxGeometry x="577" y="2018" width="324" height="397" as="geometry" />
        </mxCell>
        <mxCell id="ZEjWtM-XEEBFn4Ayn8LE-12" value="&lt;p style=&quot;margin:0px;margin-top:4px;text-align:center;&quot;&gt;&lt;b&gt;Editorial&lt;/b&gt;&lt;/p&gt;&lt;hr size=&quot;1&quot;/&gt;&lt;p style=&quot;margin:0 0 0 4px;line-height:1.6;&quot;&gt;+ Editorial(String, String): &lt;/p&gt;&lt;hr size=&quot;1&quot;/&gt;&lt;p style=&quot;margin:0 0 0 4px;line-height:1.6;&quot;&gt;- id: String&lt;br/&gt;- name: String&lt;/p&gt;" style="verticalAlign=top;align=left;overflow=fill;fontSize=14;fontFamily=Helvetica;html=1;rounded=0;shadow=0;comic=0;labelBackgroundColor=none;strokeWidth=1;" vertex="1" parent="1">
          <mxGeometry x="2442" y="307" width="192" height="125" as="geometry" />
        </mxCell>
        <mxCell id="ZEjWtM-XEEBFn4Ayn8LE-13" value="&lt;p style=&quot;margin:0px;margin-top:4px;text-align:center;&quot;&gt;&lt;b&gt;Employee&lt;/b&gt;&lt;/p&gt;&lt;hr size=&quot;1&quot;/&gt;&lt;p style=&quot;margin:0 0 0 4px;line-height:1.6;&quot;&gt;+ Employee(String, String, String, String, Date): &lt;/p&gt;&lt;hr size=&quot;1&quot;/&gt;&lt;p style=&quot;margin:0 0 0 4px;line-height:1.6;&quot;&gt;- NSS: String&lt;br/&gt;- firstName: String&lt;br/&gt;- secondLastName: String&lt;br/&gt;- initDate: Date&lt;br/&gt;- lastName: String&lt;/p&gt;" style="verticalAlign=top;align=left;overflow=fill;fontSize=14;fontFamily=Helvetica;html=1;rounded=0;shadow=0;comic=0;labelBackgroundColor=none;strokeWidth=1;" vertex="1" parent="1">
          <mxGeometry x="1759" y="224" width="324" height="200" as="geometry" />
        </mxCell>
        <mxCell id="ZEjWtM-XEEBFn4Ayn8LE-14" value="&lt;p style=&quot;margin:0px;margin-top:4px;text-align:center;&quot;&gt;&lt;i&gt;&amp;lt;&amp;lt;interface&amp;gt;&amp;gt;&lt;/i&gt;&lt;br/&gt;&lt;b&gt;Initializable&lt;/b&gt;&lt;/p&gt;&lt;hr size=&quot;1&quot;/&gt;&lt;p style=&quot;margin:0 0 0 4px;line-height:1.6;&quot;&gt;+ initialize(URL, ResourceBundle): void&lt;/p&gt;" style="verticalAlign=top;align=left;overflow=fill;fontSize=14;fontFamily=Helvetica;html=1;rounded=0;shadow=0;comic=0;labelBackgroundColor=none;strokeWidth=1;" vertex="1" parent="1">
          <mxGeometry x="1421" y="1290" width="277" height="106" as="geometry" />
        </mxCell>
        <mxCell id="ZEjWtM-XEEBFn4Ayn8LE-15" value="&lt;p style=&quot;margin:0px;margin-top:4px;text-align:center;&quot;&gt;&lt;b&gt;InterfaceController&lt;/b&gt;&lt;/p&gt;&lt;hr size=&quot;1&quot;/&gt;&lt;p style=&quot;margin:0 0 0 4px;line-height:1.6;&quot;&gt;+ InterfaceController(): &lt;/p&gt;&lt;hr size=&quot;1&quot;/&gt;&lt;p style=&quot;margin:0 0 0 4px;line-height:1.6;&quot;&gt;~ books: ObservableList&amp;lt;Book&amp;gt;&lt;br/&gt;- isbnColumn: TableColumn&amp;lt;Book, String&amp;gt;&lt;br/&gt;- titleColumn: TableColumn&amp;lt;Book, String&amp;gt;&lt;br/&gt;- searchBar: TextField&lt;br/&gt;- table: TableView&amp;lt;Book&amp;gt;&lt;br/&gt;- yearColumn: TableColumn&amp;lt;Book, String&amp;gt;&lt;br/&gt;- floorColumn: TableColumn&amp;lt;Book, String&amp;gt;&lt;br/&gt;- shelfColumn: TableColumn&amp;lt;Book, String&amp;gt;&lt;br/&gt;- dropdown: ComboBox&amp;lt;String&amp;gt;&lt;br/&gt;- signin: Label&lt;/p&gt;&lt;hr size=&quot;1&quot;/&gt;&lt;p style=&quot;margin:0 0 0 4px;line-height:1.6;&quot;&gt;+ initialize(URL, ResourceBundle): void&lt;br/&gt;+ signin(MouseEvent): void&lt;br/&gt;~ Select(ActionEvent): void&lt;/p&gt;" style="verticalAlign=top;align=left;overflow=fill;fontSize=14;fontFamily=Helvetica;html=1;rounded=0;shadow=0;comic=0;labelBackgroundColor=none;strokeWidth=1;" vertex="1" parent="1">
          <mxGeometry x="1961" y="1683" width="304" height="425" as="geometry" />
        </mxCell>
        <mxCell id="ZEjWtM-XEEBFn4Ayn8LE-16" value="&lt;p style=&quot;margin:0px;margin-top:4px;text-align:center;&quot;&gt;&lt;b&gt;LibraryApplication&lt;/b&gt;&lt;/p&gt;&lt;hr size=&quot;1&quot;/&gt;&lt;p style=&quot;margin:0 0 0 4px;line-height:1.6;&quot;&gt;+ LibraryApplication(): &lt;/p&gt;&lt;hr size=&quot;1&quot;/&gt;&lt;p style=&quot;margin:0 0 0 4px;line-height:1.6;&quot;&gt;- session: Session&lt;br/&gt;- stage: Stage&lt;/p&gt;&lt;hr size=&quot;1&quot;/&gt;&lt;p style=&quot;margin:0 0 0 4px;line-height:1.6;&quot;&gt;+ main(String[]): void&lt;br/&gt;+ signUp(String, String, String, String, String): int&lt;br/&gt;+ signIn(String, String): int&lt;br/&gt;+ getSession(): Account&lt;br/&gt;+ start(Stage): void&lt;br/&gt;+ changeScene(String): void&lt;br/&gt;+ signOut(): void&lt;/p&gt;" style="verticalAlign=top;align=left;overflow=fill;fontSize=14;fontFamily=Helvetica;html=1;rounded=0;shadow=0;comic=0;labelBackgroundColor=none;strokeWidth=1;" vertex="1" parent="1">
          <mxGeometry x="846" y="942" width="337" height="313" as="geometry" />
        </mxCell>
        <mxCell id="ZEjWtM-XEEBFn4Ayn8LE-17" value="&lt;p style=&quot;margin:0px;margin-top:4px;text-align:center;&quot;&gt;&lt;b&gt;LibraryController&lt;/b&gt;&lt;/p&gt;&lt;hr size=&quot;1&quot;/&gt;&lt;p style=&quot;margin:0 0 0 4px;line-height:1.6;&quot;&gt;+ LibraryController(): &lt;/p&gt;&lt;hr size=&quot;1&quot;/&gt;&lt;p style=&quot;margin:0 0 0 4px;line-height:1.6;&quot;&gt;- welcomeText: Label&lt;/p&gt;&lt;hr size=&quot;1&quot;/&gt;&lt;p style=&quot;margin:0 0 0 4px;line-height:1.6;&quot;&gt;# onHelloButtonClick(): void&lt;/p&gt;" style="verticalAlign=top;align=left;overflow=fill;fontSize=14;fontFamily=Helvetica;html=1;rounded=0;shadow=0;comic=0;labelBackgroundColor=none;strokeWidth=1;" vertex="1" parent="1">
          <mxGeometry x="2128" y="307" width="213" height="126" as="geometry" />
        </mxCell>
        <mxCell id="ZEjWtM-XEEBFn4Ayn8LE-18" value="&lt;p style=&quot;margin:0px;margin-top:4px;text-align:center;&quot;&gt;&lt;b&gt;LoanController&lt;/b&gt;&lt;/p&gt;&lt;hr size=&quot;1&quot;/&gt;&lt;p style=&quot;margin:0 0 0 4px;line-height:1.6;&quot;&gt;+ LoanController(): &lt;/p&gt;&lt;hr size=&quot;1&quot;/&gt;&lt;p style=&quot;margin:0 0 0 4px;line-height:1.6;&quot;&gt;- back: Text&lt;br/&gt;- container: VBox&lt;/p&gt;&lt;hr size=&quot;1&quot;/&gt;&lt;p style=&quot;margin:0 0 0 4px;line-height:1.6;&quot;&gt;+ initialize(URL, ResourceBundle): void&lt;br/&gt;~ goBack(MouseEvent): void&lt;br/&gt;- createDataAnchorPane(String, String, String): AnchorPane&lt;/p&gt;" style="verticalAlign=top;align=left;overflow=fill;fontSize=14;fontFamily=Helvetica;html=1;rounded=0;shadow=0;comic=0;labelBackgroundColor=none;strokeWidth=1;" vertex="1" parent="1">
          <mxGeometry x="874" y="1669" width="399" height="201" as="geometry" />
        </mxCell>
        <mxCell id="ZEjWtM-XEEBFn4Ayn8LE-19" value="&lt;p style=&quot;margin:0px;margin-top:4px;text-align:center;&quot;&gt;&lt;b&gt;LoginController&lt;/b&gt;&lt;/p&gt;&lt;hr size=&quot;1&quot;/&gt;&lt;p style=&quot;margin:0 0 0 4px;line-height:1.6;&quot;&gt;+ LoginController(): &lt;/p&gt;&lt;hr size=&quot;1&quot;/&gt;&lt;p style=&quot;margin:0 0 0 4px;line-height:1.6;&quot;&gt;- password: PasswordField&lt;br/&gt;- errorPassword: Label&lt;br/&gt;- button: Button&lt;br/&gt;- email: TextField&lt;br/&gt;- errorEmail: Label&lt;br/&gt;- accountNotFound: Label&lt;br/&gt;- back: Text&lt;br/&gt;- buttonSignUp: Button&lt;/p&gt;&lt;hr size=&quot;1&quot;/&gt;&lt;p style=&quot;margin:0 0 0 4px;line-height:1.6;&quot;&gt;~ goBack(MouseEvent): void&lt;br/&gt;# signUp(): void&lt;br/&gt;# signIn(): void&lt;br/&gt;- validateInput(): boolean&lt;/p&gt;" style="verticalAlign=top;align=left;overflow=fill;fontSize=14;fontFamily=Helvetica;html=1;rounded=0;shadow=0;comic=0;labelBackgroundColor=none;strokeWidth=1;" vertex="1" parent="1">
          <mxGeometry x="946" y="2018" width="216" height="397" as="geometry" />
        </mxCell>
        <mxCell id="ZEjWtM-XEEBFn4Ayn8LE-20" value="&lt;p style=&quot;margin:0px;margin-top:4px;text-align:center;&quot;&gt;&lt;b&gt;Main&lt;/b&gt;&lt;/p&gt;&lt;hr size=&quot;1&quot;/&gt;&lt;p style=&quot;margin:0 0 0 4px;line-height:1.6;&quot;&gt;+ Main(): &lt;/p&gt;&lt;hr size=&quot;1&quot;/&gt;&lt;p style=&quot;margin:0 0 0 4px;line-height:1.6;&quot;&gt;+ main(String[]): void&lt;/p&gt;" style="verticalAlign=top;align=left;overflow=fill;fontSize=14;fontFamily=Helvetica;html=1;rounded=0;shadow=0;comic=0;labelBackgroundColor=none;strokeWidth=1;" vertex="1" parent="1">
          <mxGeometry x="805" y="1362" width="173" height="95" as="geometry" />
        </mxCell>
        <mxCell id="ZEjWtM-XEEBFn4Ayn8LE-21" value="&lt;p style=&quot;margin:0px;margin-top:4px;text-align:center;&quot;&gt;&lt;b&gt;Parameters&lt;/b&gt;&lt;/p&gt;&lt;hr size=&quot;1&quot;/&gt;&lt;p style=&quot;margin:0 0 0 4px;line-height:1.6;&quot;&gt;+ Parameters(): &lt;/p&gt;&lt;hr size=&quot;1&quot;/&gt;&lt;p style=&quot;margin:0 0 0 4px;line-height:1.6;&quot;&gt;+ getNamed(): Map&amp;lt;String, String&amp;gt;&lt;br/&gt;+ getUnnamed(): List&amp;lt;String&amp;gt;&lt;br/&gt;+ getRaw(): List&amp;lt;String&amp;gt;&lt;/p&gt;" style="verticalAlign=top;align=left;overflow=fill;fontSize=14;fontFamily=Helvetica;html=1;rounded=0;shadow=0;comic=0;labelBackgroundColor=none;strokeWidth=1;" vertex="1" parent="1">
          <mxGeometry x="577" y="1027" width="249" height="144" as="geometry" />
        </mxCell>
        <mxCell id="ZEjWtM-XEEBFn4Ayn8LE-22" value="&lt;p style=&quot;margin:0px;margin-top:4px;text-align:center;&quot;&gt;&lt;b&gt;PasswordHash&lt;/b&gt;&lt;/p&gt;&lt;hr size=&quot;1&quot;/&gt;&lt;p style=&quot;margin:0 0 0 4px;line-height:1.6;&quot;&gt;+ PasswordHash(): &lt;/p&gt;&lt;hr size=&quot;1&quot;/&gt;&lt;p style=&quot;margin:0 0 0 4px;line-height:1.6;&quot;&gt;+ HASH_BYTES: int&lt;br/&gt;+ PBKDF2_ITERATIONS: int&lt;br/&gt;+ PBKDF2_ALGORITHM: String&lt;br/&gt;+ SALT_INDEX: int&lt;br/&gt;+ ITERATION_INDEX: int&lt;br/&gt;+ SALT_BYTES: int&lt;br/&gt;+ PBKDF2_INDEX: int&lt;/p&gt;&lt;hr size=&quot;1&quot;/&gt;&lt;p style=&quot;margin:0 0 0 4px;line-height:1.6;&quot;&gt;+ createHash(String): String&lt;br/&gt;+ createHash(char[]): String&lt;br/&gt;+ validatePassword(String, String): boolean&lt;br/&gt;+ validatePassword(char[], String): boolean&lt;br/&gt;- toHex(byte[]): String&lt;br/&gt;- fromHex(String): byte[]&lt;br/&gt;- pbkdf2(char[], byte[], int, int): byte[]&lt;br/&gt;- slowEquals(byte[], byte[]): boolean&lt;/p&gt;" style="verticalAlign=top;align=left;overflow=fill;fontSize=14;fontFamily=Helvetica;html=1;rounded=0;shadow=0;comic=0;labelBackgroundColor=none;strokeWidth=1;" vertex="1" parent="1">
          <mxGeometry x="1761" y="475" width="321" height="481" as="geometry" />
        </mxCell>
        <mxCell id="ZEjWtM-XEEBFn4Ayn8LE-23" value="&lt;p style=&quot;margin:0px;margin-top:4px;text-align:center;&quot;&gt;&lt;b&gt;Session&lt;/b&gt;&lt;/p&gt;&lt;hr size=&quot;1&quot;/&gt;&lt;p style=&quot;margin:0 0 0 4px;line-height:1.6;&quot;&gt;+ Session(): &lt;/p&gt;&lt;hr size=&quot;1&quot;/&gt;&lt;p style=&quot;margin:0 0 0 4px;line-height:1.6;&quot;&gt;- currentUser: Account&lt;/p&gt;&lt;hr size=&quot;1&quot;/&gt;&lt;p style=&quot;margin:0 0 0 4px;line-height:1.6;&quot;&gt;+ signUp(String, String, String, String, String): int&lt;br/&gt;+ getCurrentUser(): Account&lt;br/&gt;+ signOut(): void&lt;br/&gt;+ signIn(String, String): int&lt;/p&gt;" style="verticalAlign=top;align=left;overflow=fill;fontSize=14;fontFamily=Helvetica;html=1;rounded=0;shadow=0;comic=0;labelBackgroundColor=none;strokeWidth=1;" vertex="1" parent="1">
          <mxGeometry x="945" y="565" width="337" height="201" as="geometry" />
        </mxCell>
        <mxCell id="ZEjWtM-XEEBFn4Ayn8LE-24" value="&lt;p style=&quot;margin:0px;margin-top:4px;text-align:center;&quot;&gt;&lt;b&gt;SignUp&lt;/b&gt;&lt;/p&gt;&lt;hr size=&quot;1&quot;/&gt;&lt;p style=&quot;margin:0 0 0 4px;line-height:1.6;&quot;&gt;+ SignUp(): &lt;/p&gt;&lt;hr size=&quot;1&quot;/&gt;&lt;p style=&quot;margin:0 0 0 4px;line-height:1.6;&quot;&gt;- claveError: Label&lt;br/&gt;- errorApellidoPaterno: Label&lt;br/&gt;- buttonSignUp: Button&lt;br/&gt;- back: Text&lt;br/&gt;- claveUnica: TextField&lt;br/&gt;- account: Label&lt;br/&gt;- apellidoMaterno: TextField&lt;br/&gt;- password: PasswordField&lt;br/&gt;- errorApellidoMaterno: Label&lt;br/&gt;- errorPassword: Label&lt;br/&gt;- nombre: TextField&lt;br/&gt;- apellidoPaterno: TextField&lt;br/&gt;- errorNombre: Label&lt;/p&gt;&lt;hr size=&quot;1&quot;/&gt;&lt;p style=&quot;margin:0 0 0 4px;line-height:1.6;&quot;&gt;~ goBack(MouseEvent): void&lt;br/&gt;# signUp(): void&lt;br/&gt;- validateInput(): boolean&lt;/p&gt;" style="verticalAlign=top;align=left;overflow=fill;fontSize=14;fontFamily=Helvetica;html=1;rounded=0;shadow=0;comic=0;labelBackgroundColor=none;strokeWidth=1;" vertex="1" parent="1">
          <mxGeometry x="2442" y="447" width="224" height="509" as="geometry" />
        </mxCell>
        <mxCell id="ZEjWtM-XEEBFn4Ayn8LE-25" value="&lt;p style=&quot;margin:0px;margin-top:4px;text-align:center;&quot;&gt;&lt;b&gt;Student&lt;/b&gt;&lt;/p&gt;&lt;hr size=&quot;1&quot;/&gt;&lt;p style=&quot;margin:0 0 0 4px;line-height:1.6;&quot;&gt;+ Student(String, String, String, String): &lt;/p&gt;&lt;hr size=&quot;1&quot;/&gt;&lt;p style=&quot;margin:0 0 0 4px;line-height:1.6;&quot;&gt;- firstName: String&lt;br/&gt;- lastName: String&lt;br/&gt;- secondLastName: String&lt;br/&gt;- id: String&lt;/p&gt;&lt;hr size=&quot;1&quot;/&gt;&lt;p style=&quot;margin:0 0 0 4px;line-height:1.6;&quot;&gt;+ getId(): String&lt;/p&gt;" style="verticalAlign=top;align=left;overflow=fill;fontSize=14;fontFamily=Helvetica;html=1;rounded=0;shadow=0;comic=0;labelBackgroundColor=none;strokeWidth=1;" vertex="1" parent="1">
          <mxGeometry x="1216" y="2018" width="277" height="201" as="geometry" />
        </mxCell>
        <mxCell id="ZEjWtM-XEEBFn4Ayn8LE-26" value="&lt;p style=&quot;margin:0px;margin-top:4px;text-align:center;&quot;&gt;&lt;b&gt;UserLoanController&lt;/b&gt;&lt;/p&gt;&lt;hr size=&quot;1&quot;/&gt;&lt;p style=&quot;margin:0 0 0 4px;line-height:1.6;&quot;&gt;+ UserLoanController(): &lt;/p&gt;&lt;hr size=&quot;1&quot;/&gt;&lt;p style=&quot;margin:0 0 0 4px;line-height:1.6;&quot;&gt;- searchField: TextField&lt;br/&gt;- container: VBox&lt;br/&gt;- back: Text&lt;/p&gt;&lt;hr size=&quot;1&quot;/&gt;&lt;p style=&quot;margin:0 0 0 4px;line-height:1.6;&quot;&gt;+ goBack(MouseEvent): void&lt;br/&gt;- initialize(): void&lt;br/&gt;- handleborrowedBook(String): void&lt;br/&gt;- createDataAnchorPane(String, String, String): AnchorPane&lt;/p&gt;" style="verticalAlign=top;align=left;overflow=fill;fontSize=14;fontFamily=Helvetica;html=1;rounded=0;shadow=0;comic=0;labelBackgroundColor=none;strokeWidth=1;" vertex="1" parent="1">
          <mxGeometry x="1590" y="2246" width="399" height="257" as="geometry" />
        </mxCell>
        <mxCell id="ZEjWtM-XEEBFn4Ayn8LE-27" value="&lt;p style=&quot;margin:0px;margin-top:4px;text-align:center;&quot;&gt;&lt;b&gt;ViewBooksController&lt;/b&gt;&lt;/p&gt;&lt;hr size=&quot;1&quot;/&gt;&lt;p style=&quot;margin:0 0 0 4px;line-height:1.6;&quot;&gt;+ ViewBooksController(): &lt;/p&gt;&lt;hr size=&quot;1&quot;/&gt;&lt;p style=&quot;margin:0 0 0 4px;line-height:1.6;&quot;&gt;- searchField: TextField&lt;br/&gt;- container: VBox&lt;/p&gt;&lt;hr size=&quot;1&quot;/&gt;&lt;p style=&quot;margin:0 0 0 4px;line-height:1.6;&quot;&gt;~ goBack(MouseEvent): void&lt;br/&gt;- createDataAnchorPane(String, String, String, String): AnchorPane&lt;br/&gt;- initialize(): void&lt;/p&gt;" style="verticalAlign=top;align=left;overflow=fill;fontSize=14;fontFamily=Helvetica;html=1;rounded=0;shadow=0;comic=0;labelBackgroundColor=none;strokeWidth=1;" vertex="1" parent="1">
          <mxGeometry x="2038" y="2246" width="443" height="201" as="geometry" />
        </mxCell>
        <mxCell id="ZEjWtM-XEEBFn4Ayn8LE-28" value="&lt;p style=&quot;margin:0px;margin-top:4px;text-align:center;&quot;&gt;&lt;b&gt;addBookController&lt;/b&gt;&lt;/p&gt;&lt;hr size=&quot;1&quot;/&gt;&lt;p style=&quot;margin:0 0 0 4px;line-height:1.6;&quot;&gt;+ addBookController(): &lt;/p&gt;&lt;hr size=&quot;1&quot;/&gt;&lt;p style=&quot;margin:0 0 0 4px;line-height:1.6;&quot;&gt;- back: Text&lt;br/&gt;- Name: TextField&lt;br/&gt;- Title: TextField&lt;br/&gt;- Year: TextField&lt;br/&gt;- Lastname: TextField&lt;br/&gt;- Shelf: TextField&lt;br/&gt;- Enviar: Button&lt;br/&gt;- Floor: TextField&lt;br/&gt;- ISBN: TextField&lt;/p&gt;&lt;hr size=&quot;1&quot;/&gt;&lt;p style=&quot;margin:0 0 0 4px;line-height:1.6;&quot;&gt;+ Send(MouseEvent): void&lt;br/&gt;+ insertBook(Book): void&lt;br/&gt;+ insertAuthor(Author): void&lt;br/&gt;~ goBack(MouseEvent): void&lt;br/&gt;- showErrorAlert(String, String): void&lt;/p&gt;" style="verticalAlign=top;align=left;overflow=fill;fontSize=14;fontFamily=Helvetica;html=1;rounded=0;shadow=0;comic=0;labelBackgroundColor=none;strokeWidth=1;" vertex="1" parent="1">
          <mxGeometry x="2128" y="503" width="267" height="453" as="geometry" />
        </mxCell>
        <mxCell id="ZEjWtM-XEEBFn4Ayn8LE-29" value="&lt;p style=&quot;margin:0px;margin-top:4px;text-align:center;&quot;&gt;&lt;b&gt;bookingController&lt;/b&gt;&lt;/p&gt;&lt;hr size=&quot;1&quot;/&gt;&lt;p style=&quot;margin:0 0 0 4px;line-height:1.6;&quot;&gt;+ bookingController(): &lt;/p&gt;&lt;hr size=&quot;1&quot;/&gt;&lt;p style=&quot;margin:0 0 0 4px;line-height:1.6;&quot;&gt;~ books: ObservableList&amp;lt;Book&amp;gt;&lt;br/&gt;- table: TableView&amp;lt;Book&amp;gt;&lt;br/&gt;- shelfColumn: TableColumn&amp;lt;Book, String&amp;gt;&lt;br/&gt;- isbnColumn: TableColumn&amp;lt;Book, Integer&amp;gt;&lt;br/&gt;- yearColumn: TableColumn&amp;lt;Book, String&amp;gt;&lt;br/&gt;- titleColumn: TableColumn&amp;lt;Book, String&amp;gt;&lt;br/&gt;- searchBar: TextField&lt;br/&gt;- floorColumn: TableColumn&amp;lt;Book, String&amp;gt;&lt;br/&gt;- back: Text&lt;/p&gt;&lt;hr size=&quot;1&quot;/&gt;&lt;p style=&quot;margin:0 0 0 4px;line-height:1.6;&quot;&gt;+ initialize(URL, ResourceBundle): void&lt;br/&gt;~ goBack(MouseEvent): void&lt;/p&gt;" style="verticalAlign=top;align=left;overflow=fill;fontSize=14;fontFamily=Helvetica;html=1;rounded=0;shadow=0;comic=0;labelBackgroundColor=none;strokeWidth=1;" vertex="1" parent="1">
          <mxGeometry x="2285" y="1669" width="306" height="369" as="geometry" />
        </mxCell>
        <mxCell id="ZEjWtM-XEEBFn4Ayn8LE-30" value="" style="html=1;rounded=1;edgeStyle=orthogonalEdgeStyle;dashed=1;startArrow=none;endArrow=block;endSize=12;strokeColor=#008200;exitX=0.500;exitY=1.000;exitDx=0;exitDy=0;entryX=0.500;entryY=1.000;entryDx=0;entryDy=0;" edge="1" parent="1" source="ZEjWtM-XEEBFn4Ayn8LE-2" target="ZEjWtM-XEEBFn4Ayn8LE-14">
          <mxGeometry width="50" height="50" relative="1" as="geometry">
            <Array as="points">
              <mxPoint x="1432" y="1959" />
              <mxPoint x="560" y="1959" />
              <mxPoint x="560" y="1588" />
              <mxPoint x="1559" y="1588" />
            </Array>
          </mxGeometry>
        </mxCell>
        <mxCell id="ZEjWtM-XEEBFn4Ayn8LE-31" value="" style="html=1;rounded=1;edgeStyle=orthogonalEdgeStyle;dashed=0;startArrow=diamondThinstartSize=12;endArrow=openThin;endSize=12;strokeColor=#595959;exitX=0.500;exitY=0.000;exitDx=0;exitDy=0;entryX=0.500;entryY=1.000;entryDx=0;entryDy=0;" edge="1" parent="1" source="ZEjWtM-XEEBFn4Ayn8LE-3" target="ZEjWtM-XEEBFn4Ayn8LE-9">
          <mxGeometry width="50" height="50" relative="1" as="geometry">
            <Array as="points" />
          </mxGeometry>
        </mxCell>
        <mxCell id="ZEjWtM-XEEBFn4Ayn8LE-32" value="1" style="edgeLabel;resizable=0;html=1;align=left;verticalAlign=top;strokeColor=default;" vertex="1" connectable="0" parent="ZEjWtM-XEEBFn4Ayn8LE-31">
          <mxGeometry x="782" y="363" as="geometry" />
        </mxCell>
        <mxCell id="ZEjWtM-XEEBFn4Ayn8LE-33" value="*" style="edgeLabel;resizable=0;html=1;align=left;verticalAlign=top;strokeColor=default;" vertex="1" connectable="0" parent="ZEjWtM-XEEBFn4Ayn8LE-31">
          <mxGeometry x="784" y="341" as="geometry" />
        </mxCell>
        <mxCell id="ZEjWtM-XEEBFn4Ayn8LE-34" value="bookings" style="edgeLabel;resizable=0;html=1;align=left;verticalAlign=top;strokeColor=default;" vertex="1" connectable="0" parent="ZEjWtM-XEEBFn4Ayn8LE-31">
          <mxGeometry x="794" y="341" as="geometry" />
        </mxCell>
        <mxCell id="ZEjWtM-XEEBFn4Ayn8LE-35" value="" style="html=1;rounded=1;edgeStyle=orthogonalEdgeStyle;dashed=0;startArrow=diamondThinstartSize=12;endArrow=openThin;endSize=12;strokeColor=#595959;exitX=0.457;exitY=0.000;exitDx=0;exitDy=0;entryX=0.500;entryY=1.000;entryDx=0;entryDy=0;" edge="1" parent="1" source="ZEjWtM-XEEBFn4Ayn8LE-4" target="ZEjWtM-XEEBFn4Ayn8LE-8">
          <mxGeometry width="50" height="50" relative="1" as="geometry">
            <Array as="points">
              <mxPoint x="1751" y="1629" />
              <mxPoint x="2091" y="1629" />
            </Array>
          </mxGeometry>
        </mxCell>
        <mxCell id="ZEjWtM-XEEBFn4Ayn8LE-36" value="1" style="edgeLabel;resizable=0;html=1;align=left;verticalAlign=top;strokeColor=default;" vertex="1" connectable="0" parent="ZEjWtM-XEEBFn4Ayn8LE-35">
          <mxGeometry x="1037" y="1424" as="geometry" />
        </mxCell>
        <mxCell id="ZEjWtM-XEEBFn4Ayn8LE-37" value="*" style="edgeLabel;resizable=0;html=1;align=left;verticalAlign=top;strokeColor=default;" vertex="1" connectable="0" parent="ZEjWtM-XEEBFn4Ayn8LE-35">
          <mxGeometry x="1282" y="1390" as="geometry" />
        </mxCell>
        <mxCell id="ZEjWtM-XEEBFn4Ayn8LE-38" value="listaLibros" style="edgeLabel;resizable=0;html=1;align=left;verticalAlign=top;strokeColor=default;" vertex="1" connectable="0" parent="ZEjWtM-XEEBFn4Ayn8LE-35">
          <mxGeometry x="1244" y="1408" as="geometry" />
        </mxCell>
        <mxCell id="ZEjWtM-XEEBFn4Ayn8LE-39" value="" style="html=1;rounded=1;edgeStyle=orthogonalEdgeStyle;dashed=1;startArrow=none;endArrow=block;endSize=12;strokeColor=#008200;exitX=0.500;exitY=0.000;exitDx=0;exitDy=0;entryX=0.500;entryY=1.000;entryDx=0;entryDy=0;" edge="1" parent="1" source="ZEjWtM-XEEBFn4Ayn8LE-4" target="ZEjWtM-XEEBFn4Ayn8LE-14">
          <mxGeometry width="50" height="50" relative="1" as="geometry">
            <Array as="points">
              <mxPoint x="1766" y="1588" />
              <mxPoint x="1559" y="1588" />
            </Array>
          </mxGeometry>
        </mxCell>
        <mxCell id="ZEjWtM-XEEBFn4Ayn8LE-40" value="" style="html=1;rounded=1;edgeStyle=orthogonalEdgeStyle;dashed=1;startArrow=none;endArrow=block;endSize=12;strokeColor=#008200;exitX=0.500;exitY=1.000;exitDx=0;exitDy=0;entryX=0.500;entryY=1.000;entryDx=0;entryDy=0;" edge="1" parent="1" source="ZEjWtM-XEEBFn4Ayn8LE-5" target="ZEjWtM-XEEBFn4Ayn8LE-14">
          <mxGeometry width="50" height="50" relative="1" as="geometry">
            <Array as="points">
              <mxPoint x="716" y="1959" />
              <mxPoint x="560" y="1959" />
              <mxPoint x="560" y="1588" />
              <mxPoint x="1559" y="1588" />
            </Array>
          </mxGeometry>
        </mxCell>
        <mxCell id="ZEjWtM-XEEBFn4Ayn8LE-41" value="" style="html=1;rounded=1;edgeStyle=orthogonalEdgeStyle;dashed=0;startArrow=diamondThinstartSize=12;endArrow=openThin;endSize=12;strokeColor=#595959;exitX=0.426;exitY=0.000;exitDx=0;exitDy=0;entryX=0.500;entryY=1.000;entryDx=0;entryDy=0;" edge="1" parent="1" source="ZEjWtM-XEEBFn4Ayn8LE-15" target="ZEjWtM-XEEBFn4Ayn8LE-8">
          <mxGeometry width="50" height="50" relative="1" as="geometry">
            <Array as="points" />
          </mxGeometry>
        </mxCell>
        <mxCell id="ZEjWtM-XEEBFn4Ayn8LE-42" value="1" style="edgeLabel;resizable=0;html=1;align=left;verticalAlign=top;strokeColor=default;" vertex="1" connectable="0" parent="ZEjWtM-XEEBFn4Ayn8LE-41">
          <mxGeometry x="1377" y="1439" as="geometry" />
        </mxCell>
        <mxCell id="ZEjWtM-XEEBFn4Ayn8LE-43" value="*" style="edgeLabel;resizable=0;html=1;align=left;verticalAlign=top;strokeColor=default;" vertex="1" connectable="0" parent="ZEjWtM-XEEBFn4Ayn8LE-41">
          <mxGeometry x="1374" y="1327" as="geometry" />
        </mxCell>
        <mxCell id="ZEjWtM-XEEBFn4Ayn8LE-44" value="books" style="edgeLabel;resizable=0;html=1;align=left;verticalAlign=top;strokeColor=default;" vertex="1" connectable="0" parent="ZEjWtM-XEEBFn4Ayn8LE-41">
          <mxGeometry x="1389" y="1289" as="geometry" />
        </mxCell>
        <mxCell id="ZEjWtM-XEEBFn4Ayn8LE-45" value="" style="html=1;rounded=1;edgeStyle=orthogonalEdgeStyle;dashed=1;startArrow=none;endArrow=block;endSize=12;strokeColor=#008200;exitX=0.500;exitY=0.000;exitDx=0;exitDy=0;entryX=0.500;entryY=1.000;entryDx=0;entryDy=0;" edge="1" parent="1" source="ZEjWtM-XEEBFn4Ayn8LE-15" target="ZEjWtM-XEEBFn4Ayn8LE-14">
          <mxGeometry width="50" height="50" relative="1" as="geometry">
            <Array as="points">
              <mxPoint x="2113" y="1588" />
              <mxPoint x="1559" y="1588" />
            </Array>
          </mxGeometry>
        </mxCell>
        <mxCell id="ZEjWtM-XEEBFn4Ayn8LE-46" value="" style="html=1;rounded=1;edgeStyle=orthogonalEdgeStyle;dashed=0;startArrow=none;endArrow=block;endSize=12;strokeColor=#000082;exitX=0.022;exitY=0.000;exitDx=0;exitDy=0;entryX=0.775;entryY=1.000;entryDx=0;entryDy=0;" edge="1" parent="1" source="ZEjWtM-XEEBFn4Ayn8LE-16" target="ZEjWtM-XEEBFn4Ayn8LE-6">
          <mxGeometry width="50" height="50" relative="1" as="geometry">
            <Array as="points" />
          </mxGeometry>
        </mxCell>
        <mxCell id="ZEjWtM-XEEBFn4Ayn8LE-47" value="" style="html=1;rounded=1;edgeStyle=orthogonalEdgeStyle;dashed=0;startArrow=diamondThinstartSize=12;endArrow=openThin;endSize=12;strokeColor=#595959;exitX=0.793;exitY=0.000;exitDx=0;exitDy=0;entryX=0.500;entryY=1.000;entryDx=0;entryDy=0;" edge="1" parent="1" source="ZEjWtM-XEEBFn4Ayn8LE-16" target="ZEjWtM-XEEBFn4Ayn8LE-23">
          <mxGeometry width="50" height="50" relative="1" as="geometry">
            <Array as="points" />
          </mxGeometry>
        </mxCell>
        <mxCell id="ZEjWtM-XEEBFn4Ayn8LE-48" value="1" style="edgeLabel;resizable=0;html=1;align=left;verticalAlign=top;strokeColor=default;" vertex="1" connectable="0" parent="ZEjWtM-XEEBFn4Ayn8LE-47">
          <mxGeometry x="399" y="555" as="geometry" />
        </mxCell>
        <mxCell id="ZEjWtM-XEEBFn4Ayn8LE-49" value="1" style="edgeLabel;resizable=0;html=1;align=left;verticalAlign=top;strokeColor=default;" vertex="1" connectable="0" parent="ZEjWtM-XEEBFn4Ayn8LE-47">
          <mxGeometry x="399" y="679" as="geometry" />
        </mxCell>
        <mxCell id="ZEjWtM-XEEBFn4Ayn8LE-50" value="session" style="edgeLabel;resizable=0;html=1;align=left;verticalAlign=top;strokeColor=default;" vertex="1" connectable="0" parent="ZEjWtM-XEEBFn4Ayn8LE-47">
          <mxGeometry x="411" y="555" as="geometry" />
        </mxCell>
        <mxCell id="ZEjWtM-XEEBFn4Ayn8LE-51" value="" style="html=1;rounded=1;edgeStyle=orthogonalEdgeStyle;dashed=1;startArrow=none;endArrow=block;endSize=12;strokeColor=#008200;exitX=0.500;exitY=0.000;exitDx=0;exitDy=0;entryX=0.500;entryY=1.000;entryDx=0;entryDy=0;" edge="1" parent="1" source="ZEjWtM-XEEBFn4Ayn8LE-18" target="ZEjWtM-XEEBFn4Ayn8LE-14">
          <mxGeometry width="50" height="50" relative="1" as="geometry">
            <Array as="points">
              <mxPoint x="1074" y="1588" />
              <mxPoint x="1559" y="1588" />
            </Array>
          </mxGeometry>
        </mxCell>
        <mxCell id="ZEjWtM-XEEBFn4Ayn8LE-52" value="" style="html=1;rounded=1;edgeStyle=orthogonalEdgeStyle;dashed=0;startArrow=circlePlus;startFill=0;endArrow=none;strokeColor=#820000;exitX=0.760;exitY=0.000;exitDx=0;exitDy=0;entryX=0.500;entryY=1.000;entryDx=0;entryDy=0;" edge="1" parent="1" source="ZEjWtM-XEEBFn4Ayn8LE-21" target="ZEjWtM-XEEBFn4Ayn8LE-6">
          <mxGeometry width="50" height="50" relative="1" as="geometry">
            <Array as="points" />
          </mxGeometry>
        </mxCell>
        <mxCell id="ZEjWtM-XEEBFn4Ayn8LE-53" value="" style="html=1;rounded=1;edgeStyle=orthogonalEdgeStyle;dashed=0;startArrow=diamondThinstartSize=12;endArrow=openThin;endSize=12;strokeColor=#595959;exitX=0.500;exitY=0.000;exitDx=0;exitDy=0;entryX=0.500;entryY=1.000;entryDx=0;entryDy=0;" edge="1" parent="1" source="ZEjWtM-XEEBFn4Ayn8LE-23" target="ZEjWtM-XEEBFn4Ayn8LE-1">
          <mxGeometry width="50" height="50" relative="1" as="geometry">
            <Array as="points" />
          </mxGeometry>
        </mxCell>
        <mxCell id="ZEjWtM-XEEBFn4Ayn8LE-54" value="1" style="edgeLabel;resizable=0;html=1;align=left;verticalAlign=top;strokeColor=default;" vertex="1" connectable="0" parent="ZEjWtM-XEEBFn4Ayn8LE-53">
          <mxGeometry x="399" y="181" as="geometry" />
        </mxCell>
        <mxCell id="ZEjWtM-XEEBFn4Ayn8LE-55" value="1" style="edgeLabel;resizable=0;html=1;align=left;verticalAlign=top;strokeColor=default;" vertex="1" connectable="0" parent="ZEjWtM-XEEBFn4Ayn8LE-53">
          <mxGeometry x="399" y="313" as="geometry" />
        </mxCell>
        <mxCell id="ZEjWtM-XEEBFn4Ayn8LE-56" value="currentUser" style="edgeLabel;resizable=0;html=1;align=left;verticalAlign=top;strokeColor=default;" vertex="1" connectable="0" parent="ZEjWtM-XEEBFn4Ayn8LE-53">
          <mxGeometry x="411" y="181" as="geometry" />
        </mxCell>
        <mxCell id="ZEjWtM-XEEBFn4Ayn8LE-57" value="" style="html=1;rounded=1;edgeStyle=orthogonalEdgeStyle;dashed=0;startArrow=diamondThinstartSize=12;endArrow=openThin;endSize=12;strokeColor=#595959;exitX=0.451;exitY=0.000;exitDx=0;exitDy=0;entryX=0.500;entryY=1.000;entryDx=0;entryDy=0;" edge="1" parent="1" source="ZEjWtM-XEEBFn4Ayn8LE-29" target="ZEjWtM-XEEBFn4Ayn8LE-8">
          <mxGeometry width="50" height="50" relative="1" as="geometry">
            <Array as="points">
              <mxPoint x="2423" y="1629" />
              <mxPoint x="2091" y="1629" />
            </Array>
          </mxGeometry>
        </mxCell>
        <mxCell id="ZEjWtM-XEEBFn4Ayn8LE-58" value="1" style="edgeLabel;resizable=0;html=1;align=left;verticalAlign=top;strokeColor=default;" vertex="1" connectable="0" parent="ZEjWtM-XEEBFn4Ayn8LE-57">
          <mxGeometry x="1709" y="1425" as="geometry" />
        </mxCell>
        <mxCell id="ZEjWtM-XEEBFn4Ayn8LE-59" value="*" style="edgeLabel;resizable=0;html=1;align=left;verticalAlign=top;strokeColor=default;" vertex="1" connectable="0" parent="ZEjWtM-XEEBFn4Ayn8LE-57">
          <mxGeometry x="1616" y="1390" as="geometry" />
        </mxCell>
        <mxCell id="ZEjWtM-XEEBFn4Ayn8LE-60" value="books" style="edgeLabel;resizable=0;html=1;align=left;verticalAlign=top;strokeColor=default;" vertex="1" connectable="0" parent="ZEjWtM-XEEBFn4Ayn8LE-57">
          <mxGeometry x="1535" y="1408" as="geometry" />
        </mxCell>
        <mxCell id="ZEjWtM-XEEBFn4Ayn8LE-61" value="" style="html=1;rounded=1;edgeStyle=orthogonalEdgeStyle;dashed=1;startArrow=none;endArrow=block;endSize=12;strokeColor=#008200;exitX=0.500;exitY=0.000;exitDx=0;exitDy=0;entryX=0.500;entryY=1.000;entryDx=0;entryDy=0;" edge="1" parent="1" source="ZEjWtM-XEEBFn4Ayn8LE-29" target="ZEjWtM-XEEBFn4Ayn8LE-14">
          <mxGeometry width="50" height="50" relative="1" as="geometry">
            <Array as="points">
              <mxPoint x="2438" y="1588" />
              <mxPoint x="1559" y="1588" />
            </Array>
          </mxGeometry>
        </mxCell>
      </root>
    </mxGraphModel>
  </diagram>
</mxfile>
